<svg xmlns="http://www.w3.org/2000/svg" width="1280" height="720" viewBox="0 0 1280 720" fill="none">
  <rect width="1280" height="720" fill="#0B1120"/>
  <rect x="40" y="40" width="1200" height="640" rx="24" fill="#111827" stroke="#334155"/>
  <rect x="90" y="280" width="210" height="110" rx="14" fill="#1E293B" stroke="#475569"/>
  <text x="195" y="345" fill="#E2E8F0" font-size="24" text-anchor="middle" font-family="Segoe UI">Web UI</text>
  <rect x="380" y="220" width="260" height="170" rx="14" fill="#0F172A" stroke="#22D3EE"/>
  <text x="510" y="285" fill="#E2E8F0" font-size="24" text-anchor="middle" font-family="Segoe UI">FastAPI</text>
  <text x="510" y="320" fill="#94A3B8" font-size="18" text-anchor="middle" font-family="Segoe UI">Assist + Retain + Feedback</text>
  <rect x="720" y="120" width="230" height="120" rx="14" fill="#0F172A" stroke="#38BDF8"/>
  <text x="835" y="185" fill="#E2E8F0" font-size="22" text-anchor="middle" font-family="Segoe UI">Plan Engine</text>
  <rect x="720" y="310" width="230" height="120" rx="14" fill="#0F172A" stroke="#38BDF8"/>
  <text x="835" y="375" fill="#E2E8F0" font-size="22" text-anchor="middle" font-family="Segoe UI">Memory Adapter</text>
  <rect x="1010" y="230" width="170" height="110" rx="14" fill="#1E293B" stroke="#F472B6"/>
  <text x="1095" y="295" fill="#E2E8F0" font-size="20" text-anchor="middle" font-family="Segoe UI">Hindsight</text>
  <rect x="720" y="500" width="230" height="120" rx="14" fill="#0F172A" stroke="#22C55E"/>
  <text x="835" y="565" fill="#E2E8F0" font-size="22" text-anchor="middle" font-family="Segoe UI">Local Memory</text>
  <line x1="300" y1="335" x2="380" y2="305" stroke="#64748B" stroke-width="4"/>
  <line x1="640" y1="290" x2="720" y2="180" stroke="#64748B" stroke-width="4"/>
  <line x1="640" y1="305" x2="720" y2="370" stroke="#64748B" stroke-width="4"/>
  <line x1="950" y1="370" x2="1010" y2="285" stroke="#64748B" stroke-width="4"/>
  <line x1="835" y1="430" x2="835" y2="500" stroke="#64748B" stroke-width="4"/>
</svg>
